<mxfile host="app.diagrams.net" modified="2021-09-26T10:58:56.870Z" agent="5.0 (Windows NT 10.0; Win64; x64) AppleWebKit/537.36 (KHTML, like Gecko) Chrome/79.0.3945.117 Safari/537.36" etag="LHuXHYZBnmWuVH8HPT-5" version="15.1.0" type="github">
  <diagram id="Leo3RBnQzFB5awd-gTzj" name="Page-1">
    <mxGraphModel dx="1422" dy="713" grid="1" gridSize="10" guides="1" tooltips="1" connect="1" arrows="1" fold="1" page="1" pageScale="1" pageWidth="827" pageHeight="1169" math="0" shadow="0">
      <root>
        <mxCell id="0" />
        <mxCell id="1" parent="0" />
        <mxCell id="xYpUFYLVgmepYnuZmEIF-1" value="业务管控与数据呈现层&lt;br&gt;（例如资产管理、漏扫、基线核查能安全功能）" style="rounded=0;whiteSpace=wrap;html=1;fillColor=#FFF942;" vertex="1" parent="1">
          <mxGeometry x="270" y="170" width="240" height="160" as="geometry" />
        </mxCell>
        <mxCell id="xYpUFYLVgmepYnuZmEIF-2" value="PaaS通用服务&lt;br&gt;（例如：合同管理、用户管理等）" style="rounded=0;whiteSpace=wrap;html=1;" vertex="1" parent="1">
          <mxGeometry x="50" y="170" width="120" height="160" as="geometry" />
        </mxCell>
        <mxCell id="xYpUFYLVgmepYnuZmEIF-3" value="PaaS通用中间件&lt;br&gt;（例如：mysql、redis、kafka、es等）" style="rounded=0;whiteSpace=wrap;html=1;" vertex="1" parent="1">
          <mxGeometry x="625" y="170" width="170" height="160" as="geometry" />
        </mxCell>
        <mxCell id="xYpUFYLVgmepYnuZmEIF-4" value="通讯与控制层" style="rounded=0;whiteSpace=wrap;html=1;fillColor=#FFF942;" vertex="1" parent="1">
          <mxGeometry x="270" y="420" width="240" height="60" as="geometry" />
        </mxCell>
        <mxCell id="xYpUFYLVgmepYnuZmEIF-5" value="" style="endArrow=none;dashed=1;html=1;" edge="1" parent="1">
          <mxGeometry width="50" height="50" relative="1" as="geometry">
            <mxPoint x="70" y="510" as="sourcePoint" />
            <mxPoint x="780" y="510" as="targetPoint" />
          </mxGeometry>
        </mxCell>
        <mxCell id="xYpUFYLVgmepYnuZmEIF-6" value="&lt;b&gt;&lt;font style=&quot;font-size: 16px&quot;&gt;Server侧&lt;/font&gt;&lt;/b&gt;" style="text;html=1;resizable=0;autosize=1;align=center;verticalAlign=middle;points=[];fillColor=none;strokeColor=none;rounded=0;" vertex="1" parent="1">
          <mxGeometry x="60" y="450" width="80" height="20" as="geometry" />
        </mxCell>
        <mxCell id="xYpUFYLVgmepYnuZmEIF-7" value="&lt;b&gt;&lt;font style=&quot;font-size: 16px&quot;&gt;租户侧&lt;/font&gt;&lt;/b&gt;" style="text;html=1;resizable=0;autosize=1;align=center;verticalAlign=middle;points=[];fillColor=none;strokeColor=none;rounded=0;" vertex="1" parent="1">
          <mxGeometry x="70" y="550" width="60" height="20" as="geometry" />
        </mxCell>
        <mxCell id="xYpUFYLVgmepYnuZmEIF-8" value="Agent" style="rounded=0;whiteSpace=wrap;html=1;fillColor=#FFF942;" vertex="1" parent="1">
          <mxGeometry x="180" y="600" width="110" height="60" as="geometry" />
        </mxCell>
        <mxCell id="xYpUFYLVgmepYnuZmEIF-10" value="Agent" style="rounded=0;whiteSpace=wrap;html=1;fillColor=#FFF942;" vertex="1" parent="1">
          <mxGeometry x="359" y="600" width="110" height="60" as="geometry" />
        </mxCell>
        <mxCell id="xYpUFYLVgmepYnuZmEIF-11" value="Agent" style="rounded=0;whiteSpace=wrap;html=1;fillColor=#FFF942;" vertex="1" parent="1">
          <mxGeometry x="580" y="600" width="110" height="60" as="geometry" />
        </mxCell>
        <object label="命令下发" id="xYpUFYLVgmepYnuZmEIF-12">
          <mxCell style="endArrow=classic;html=1;exitX=0.5;exitY=1;exitDx=0;exitDy=0;" edge="1" parent="1" source="xYpUFYLVgmepYnuZmEIF-4">
            <mxGeometry relative="1" as="geometry">
              <mxPoint x="370" y="480" as="sourcePoint" />
              <mxPoint x="370" y="597" as="targetPoint" />
            </mxGeometry>
          </mxCell>
        </object>
        <object label="命令下发" id="xYpUFYLVgmepYnuZmEIF-14">
          <mxCell style="endArrow=classic;html=1;entryX=0.463;entryY=-0.033;entryDx=0;entryDy=0;entryPerimeter=0;" edge="1" parent="1" target="xYpUFYLVgmepYnuZmEIF-4">
            <mxGeometry relative="1" as="geometry">
              <mxPoint x="390" y="330" as="sourcePoint" />
              <mxPoint x="401" y="447" as="targetPoint" />
            </mxGeometry>
          </mxCell>
        </object>
        <mxCell id="xYpUFYLVgmepYnuZmEIF-15" value="消息上报" style="endArrow=classic;html=1;entryX=0.721;entryY=1.083;entryDx=0;entryDy=0;entryPerimeter=0;exitX=0.582;exitY=-0.067;exitDx=0;exitDy=0;exitPerimeter=0;" edge="1" parent="1" source="xYpUFYLVgmepYnuZmEIF-10" target="xYpUFYLVgmepYnuZmEIF-4">
          <mxGeometry relative="1" as="geometry">
            <mxPoint x="430" y="600" as="sourcePoint" />
            <mxPoint x="530" y="600" as="targetPoint" />
          </mxGeometry>
        </mxCell>
        <mxCell id="xYpUFYLVgmepYnuZmEIF-18" value="消息上报" style="endArrow=classic;html=1;entryX=0.75;entryY=1;entryDx=0;entryDy=0;" edge="1" parent="1" target="xYpUFYLVgmepYnuZmEIF-1">
          <mxGeometry relative="1" as="geometry">
            <mxPoint x="440" y="420" as="sourcePoint" />
            <mxPoint x="453" y="340" as="targetPoint" />
          </mxGeometry>
        </mxCell>
        <object label="对接调用" id="xYpUFYLVgmepYnuZmEIF-19">
          <mxCell style="endArrow=classic;html=1;entryX=1;entryY=0.5;entryDx=0;entryDy=0;" edge="1" parent="1" target="xYpUFYLVgmepYnuZmEIF-2">
            <mxGeometry relative="1" as="geometry">
              <mxPoint x="269" y="250" as="sourcePoint" />
              <mxPoint x="200" y="250" as="targetPoint" />
            </mxGeometry>
          </mxCell>
        </object>
        <mxCell id="xYpUFYLVgmepYnuZmEIF-20" value="直接使用" style="endArrow=classic;html=1;entryX=0;entryY=0.5;entryDx=0;entryDy=0;" edge="1" parent="1" target="xYpUFYLVgmepYnuZmEIF-3">
          <mxGeometry relative="1" as="geometry">
            <mxPoint x="510" y="250" as="sourcePoint" />
            <mxPoint x="610" y="250" as="targetPoint" />
            <Array as="points">
              <mxPoint x="580" y="250" />
            </Array>
          </mxGeometry>
        </mxCell>
        <mxCell id="xYpUFYLVgmepYnuZmEIF-24" value="第三方数据消费方&lt;br&gt;（例如aicso、大数据平台等）" style="rounded=0;whiteSpace=wrap;html=1;" vertex="1" parent="1">
          <mxGeometry x="440" y="20" width="170" height="70" as="geometry" />
        </mxCell>
        <mxCell id="xYpUFYLVgmepYnuZmEIF-25" value="第三方接口调用" style="rounded=0;whiteSpace=wrap;html=1;" vertex="1" parent="1">
          <mxGeometry x="189" y="20" width="170" height="70" as="geometry" />
        </mxCell>
        <mxCell id="xYpUFYLVgmepYnuZmEIF-26" value="消息外发" style="endArrow=classic;html=1;entryX=0.5;entryY=1;entryDx=0;entryDy=0;" edge="1" parent="1" target="xYpUFYLVgmepYnuZmEIF-24">
          <mxGeometry relative="1" as="geometry">
            <mxPoint x="459" y="170" as="sourcePoint" />
            <mxPoint x="469" y="80" as="targetPoint" />
          </mxGeometry>
        </mxCell>
        <object label="接口调用" id="xYpUFYLVgmepYnuZmEIF-30">
          <mxCell style="endArrow=classic;html=1;exitX=0.5;exitY=1;exitDx=0;exitDy=0;entryX=0.279;entryY=-0.019;entryDx=0;entryDy=0;entryPerimeter=0;" edge="1" parent="1" target="xYpUFYLVgmepYnuZmEIF-1">
            <mxGeometry relative="1" as="geometry">
              <mxPoint x="290" y="90" as="sourcePoint" />
              <mxPoint x="270" y="207" as="targetPoint" />
            </mxGeometry>
          </mxCell>
        </object>
        <mxCell id="xYpUFYLVgmepYnuZmEIF-31" value="通讯与控制节点管控" style="rounded=0;whiteSpace=wrap;html=1;fillColor=#FFF942;" vertex="1" parent="1">
          <mxGeometry x="630" y="420" width="165" height="60" as="geometry" />
        </mxCell>
        <object label="节点监控与管理" id="xYpUFYLVgmepYnuZmEIF-32">
          <mxCell style="endArrow=classic;html=1;exitX=0;exitY=0.5;exitDx=0;exitDy=0;entryX=1;entryY=0.5;entryDx=0;entryDy=0;" edge="1" parent="1" source="xYpUFYLVgmepYnuZmEIF-31" target="xYpUFYLVgmepYnuZmEIF-4">
            <mxGeometry relative="1" as="geometry">
              <mxPoint x="600" y="450" as="sourcePoint" />
              <mxPoint x="580" y="567" as="targetPoint" />
            </mxGeometry>
          </mxCell>
        </object>
      </root>
    </mxGraphModel>
  </diagram>
</mxfile>
